<svg width="23" height="22" viewBox="0 0 23 22" fill="none" xmlns="http://www.w3.org/2000/svg">
<path d="M11.196 5.3501C8.07405 5.3501 5.54657 7.87822 5.54657 10.9948C5.54657 14.1142 8.07681 16.6396 11.196 16.6396C14.318 16.6396 16.8455 14.1114 16.8455 10.9948C16.8455 7.87547 14.3152 5.3501 11.196 5.3501ZM11.196 14.6587C9.16945 14.6587 7.52911 13.0188 7.52911 10.9948C7.52911 8.97087 9.17037 7.33098 11.196 7.33098C13.2217 7.33098 14.8629 8.97087 14.8629 10.9948C14.8639 13.0188 13.2226 14.6587 11.196 14.6587Z" fill="#EEEEEE"/>
<path d="M15.7318 0.0691032C13.7061 -0.0253118 8.68876 -0.0207285 6.66127 0.0691032C4.87965 0.152518 3.30811 0.582427 2.04116 1.84832C-0.0762388 3.96395 0.194399 6.81474 0.194399 10.9956C0.194399 15.2745 -0.0441291 18.0593 2.04116 20.1428C4.16682 22.2658 7.06127 21.9881 11.1961 21.9881C15.4382 21.9881 16.9024 21.9908 18.4024 21.4106C20.4418 20.6195 21.9812 18.7981 22.1317 15.5266C22.2271 13.5017 22.2216 8.48946 22.1317 6.46366C21.95 2.60181 19.8757 0.259767 15.7318 0.0691032ZM18.9381 18.7431C17.5501 20.13 15.6244 20.0063 11.1695 20.0063C6.58237 20.0063 4.74295 20.0741 3.40077 18.7294C1.85492 17.1921 2.13474 14.7236 2.13474 10.9809C2.13474 5.91642 1.61456 2.26906 6.70164 2.00874C7.87043 1.96749 8.21446 1.95374 11.1566 1.95374L11.1979 1.98124C16.0868 1.98124 19.9225 1.46975 20.1528 6.55166C20.2051 7.71122 20.217 8.05955 20.217 10.9947C20.2161 15.5247 20.3023 17.3736 18.9381 18.7431Z" fill="#EEEEEE"/>
<path d="M17.0693 6.4472C17.7984 6.4472 18.3895 5.85664 18.3895 5.12814C18.3895 4.39965 17.7984 3.80908 17.0693 3.80908C16.3402 3.80908 15.7491 4.39965 15.7491 5.12814C15.7491 5.85664 16.3402 6.4472 17.0693 6.4472Z" fill="#EEEEEE"/>
</svg>
