<svg width="68" height="80" viewBox="0 0 68 80" fill="none" xmlns="http://www.w3.org/2000/svg">
<path d="M65.5733 12.9541L34.9483 0.238887C34.1811 -0.0795508 33.3188 -0.0797071 32.5517 0.238887L1.92672 12.9541C0.760313 13.4384 0 14.5772 0 15.8401V31.2972C0 52.5805 12.8639 71.7253 32.5691 79.7683C33.326 80.0772 34.1739 80.0772 34.931 79.7683C54.6358 71.7255 67.5 52.5806 67.5 31.2972V15.8401C67.5 14.5772 66.7399 13.4384 65.5733 12.9541ZM61.25 31.2972C61.25 49.3902 50.625 66.046 33.75 73.4807C17.3259 66.2446 6.25 49.8805 6.25 31.2972V17.9264L33.75 6.50858L61.25 17.9264V31.2972ZM30.296 41.8306L43.7278 28.3989C44.9482 27.1786 46.9268 27.1784 48.1472 28.3989C49.3677 29.6194 49.3675 31.598 48.1471 32.8183L32.5056 48.4597C31.285 49.6803 29.3064 49.6799 28.0863 48.4597L19.3528 39.7263C18.1324 38.5058 18.1324 36.5272 19.3528 35.3069C20.5733 34.0866 22.5519 34.0864 23.7722 35.3069L30.296 41.8306Z" fill="#333333"/>
</svg>
