<svg width="93" height="80" viewBox="0 0 93 80" fill="none" xmlns="http://www.w3.org/2000/svg">
<path d="M89.3061 42.5635V19.6766C89.3061 8.82694 80.4793 0 69.6295 0C60.5667 0 52.9169 6.1592 50.6423 14.5112C47.2841 14.0145 43.795 14.0814 40.4696 14.7149C39.7423 14.8534 39.265 15.5552 39.4035 16.2827C39.5387 17.0144 40.2617 17.4894 40.9712 17.3488C43.9583 16.78 47.0942 16.7126 50.1154 17.1443C50.0084 17.9736 49.9529 18.8188 49.9529 19.6768V28.0706C49.8234 28.065 42.7635 28.0606 42.7635 28.0606C38.3697 28.0606 34.6955 31.1978 33.8612 35.3496C33.2059 35.0685 32.5349 34.8247 31.8524 34.6191V32.7542C33.1673 31.2802 34.1394 29.5218 34.6833 27.5927C35.9962 26.93 37.326 25.4796 38.1131 23.8084C39.2172 21.5345 38.8551 19.231 36.5938 18.1478C36.1228 17.926 35.6459 17.8001 35.177 17.7695V12.0903C35.177 7.08319 31.1035 3.00963 26.0964 3.00963H19.2972C14.2901 3.00963 10.2165 7.08319 10.2165 12.0903V17.7695C9.7475 17.7999 9.27054 17.9258 8.79953 18.1478C6.53806 19.2317 6.17633 21.5338 7.28028 23.8084C8.06723 25.4795 9.39659 26.9296 10.7101 27.5925C11.2541 29.522 12.2263 31.2804 13.5412 32.7543V34.6193C5.53473 37.0239 0 44.4198 0 52.8432C0 53.9074 0.865924 54.7733 1.93021 54.7733H17.7193C19.5233 59.7406 22.5879 64.1337 26.6393 67.5563C24.6229 70.5978 23.4663 74.228 23.4663 78.07C23.4663 79.1343 24.3322 80 25.3965 80H66.9302C67.9945 80 68.8604 79.1341 68.8604 78.0698C68.8604 69.6471 63.3253 62.2507 55.3188 59.8461V57.8048C56.1316 56.894 56.8141 55.8751 57.3441 54.7732H71.7413C70.715 57.3149 69.3162 59.682 67.5689 61.83C67.1019 62.4044 67.1886 63.2487 67.7629 63.7161C68.0114 63.9182 68.3108 64.0167 68.6079 64.0167C68.9976 64.0167 69.3839 63.8477 69.6488 63.522C71.7941 60.8849 73.4592 57.9453 74.6103 54.7733H90.3961C91.4604 54.7733 92.3263 53.9074 92.3263 52.8432C92.3267 49.1014 91.2289 45.5575 89.3061 42.5635ZM52.6343 19.6766C52.6343 10.3054 60.2583 2.68126 69.6297 2.68126C79.001 2.68126 86.625 10.3052 86.625 19.6766V39.2666C84.4723 37.1483 81.8047 35.5281 78.7853 34.6207V32.0659C80.9042 29.6875 82.11 26.5923 82.11 23.3262V16.9596C82.11 13.9478 79.6595 11.4974 76.6476 11.4974H62.5477C59.5358 11.4974 57.0853 13.9478 57.0853 16.9596V23.3262C57.0853 26.6254 58.3155 29.7507 60.4743 32.1383V34.6178C59.7922 34.8232 59.121 35.0679 58.4653 35.3492C57.8356 32.2159 55.5882 29.6614 52.6345 28.5964V19.6766H52.6343ZM74.8012 32.0118L71.5546 34.1941C70.3659 34.9933 68.8294 34.9933 67.6403 34.1941L64.3937 32.0118C61.4963 30.0642 59.7664 26.8175 59.7664 23.3262V16.9596C59.7664 15.4261 61.0141 14.1785 62.5477 14.1785H76.6476C78.1811 14.1785 79.4289 15.426 79.4289 16.9596V23.3262C79.4287 26.8173 77.6989 30.0642 74.8012 32.0118ZM63.1554 34.4099L66.1447 36.4193C67.1935 37.1242 68.3955 37.4765 69.5974 37.4765C70.7993 37.4765 72.0015 37.1242 73.0501 36.4193L76.1039 34.3666V36.4784C76.1039 40.0483 73.1996 42.9526 69.6295 42.9526C66.0596 42.9526 63.1553 40.0483 63.1553 36.4784V34.4099H63.1554ZM56.7636 50.3265C56.2165 50.5135 55.8077 50.9638 55.6698 51.5322C55.055 54.0751 53.5208 56.2793 51.3501 57.7383L48.1127 59.9141C46.9286 60.7099 45.3982 60.7099 44.2138 59.9141L40.9766 57.7383C38.8061 56.2793 37.272 54.0753 36.6568 51.5313C36.519 50.9634 36.1098 50.5132 35.5633 50.3267C34.8827 50.0941 33.7813 49.0639 33.1723 47.7167C32.4357 46.0872 33.6828 45.2157 34.3044 45.6179C34.7156 45.8838 35.2407 45.8972 35.6689 45.6615C36.0978 45.426 36.3643 44.9757 36.3643 44.4865V41.1092C36.3643 39.3844 37.7676 37.9811 39.4924 37.9811H52.8341C54.5589 37.9811 55.9622 39.3844 55.9622 41.1092V44.4863C55.9622 44.9754 56.2286 45.4258 56.6576 45.6613C57.0862 45.897 57.6093 45.8802 58.0221 45.6177C58.8361 45.276 60.1144 45.7684 59.1542 47.7165C58.5243 49.0541 57.444 50.0939 56.7636 50.3265ZM39.6891 60.1032L42.7184 62.1395C43.7647 62.8427 44.9642 63.1944 46.1633 63.1944C47.3627 63.1944 48.5622 62.8427 49.6085 62.1395L52.6378 60.1034V61.7052C52.6378 65.2752 49.7334 68.1795 46.1635 68.1795C42.5936 68.1795 39.6891 65.2752 39.6891 61.7052V60.1032ZM42.7637 30.7419H49.5628C52.7616 30.7419 55.4196 33.1011 55.8887 36.1708C55.0006 35.6195 53.9541 35.3 52.8341 35.3H39.4924C38.3724 35.3 37.326 35.6194 36.4379 36.1708C36.9069 33.1009 39.5651 30.7419 42.7637 30.7419ZM16.2228 35.0529L19.2521 37.089C20.2985 37.7925 21.4977 38.1441 22.697 38.1441C23.8962 38.1439 25.0959 37.7923 26.142 37.089L29.1714 35.0528V36.6548C29.1714 40.2247 26.2669 43.129 22.697 43.129C19.1271 43.129 16.2228 40.2247 16.2228 36.6548V35.0529ZM19.2975 5.69107H26.0967C29.2955 5.69107 31.9535 8.05027 32.4225 11.12C31.5344 10.5685 30.4878 10.2492 29.3678 10.2492H16.0263C14.9063 10.2492 13.8598 10.5685 12.9717 11.12C13.4407 8.05027 16.0989 5.69107 19.2975 5.69107ZM12.0975 25.2762C11.4168 25.0436 10.3363 24.0035 9.70638 22.6662C9.402 22.0197 9.29146 21.4703 9.39496 21.1187C9.35709 20.7495 10.2169 20.0122 10.8383 20.5672C11.2033 20.8932 11.7742 20.8462 12.203 20.611C12.6316 20.3755 12.8983 19.9253 12.8983 19.4359V16.0585C12.8983 14.3337 14.3016 12.9304 16.0264 12.9304H29.368C31.0928 12.9304 32.4961 14.3337 32.4961 16.0585V19.4359C32.4961 19.9251 32.7626 20.3755 33.1914 20.611C33.6203 20.8462 34.2175 20.9205 34.5562 20.5672C35.0241 20.0791 35.881 20.5818 35.9995 21.1187C36.0785 21.4766 35.9924 22.0197 35.6881 22.6662C35.0582 24.0037 33.9777 25.0436 33.2982 25.2759C32.7504 25.4627 32.3414 25.9133 32.2036 26.4817C31.5889 29.0247 30.0547 31.2286 27.8839 32.6878L24.6465 34.8636C23.4625 35.6594 21.9323 35.6597 20.7479 34.8636L17.5107 32.6878C15.3399 31.2286 13.8057 29.0245 13.1906 26.4814C13.0532 25.9135 12.6444 25.4631 12.0975 25.2762ZM13.5765 37.4257C13.9696 42.1141 17.9087 45.8103 22.697 45.8103C27.4854 45.8103 31.4243 42.1147 31.8177 37.4266C32.4552 37.6522 33.0784 37.9187 33.683 38.222V42.8203C33.214 42.8508 32.7368 42.9766 32.266 43.1986C30.6101 43.9785 29.3415 45.8752 30.7468 48.8594C31.3597 50.1608 32.3021 51.3264 33.3094 52.0925H2.69839C3.00224 45.4285 7.3315 39.6285 13.5765 37.4257ZM20.5901 54.7733H34.9828C35.5128 55.8753 36.1951 56.894 37.0079 57.8048V59.847C33.5553 60.8844 30.5625 62.8518 28.2745 65.4302C24.8777 62.5346 22.252 58.8866 20.5901 54.7733ZM66.1622 77.3189H26.1647C26.4693 70.6572 30.8066 64.848 37.0562 62.648C37.5297 67.255 41.4332 70.8607 46.1633 70.8607C50.8935 70.8607 54.7973 67.2548 55.2705 62.6473C61.5228 64.8467 65.8581 70.651 66.1622 77.3189ZM59.0175 52.0921C60.0246 51.3262 60.967 50.1604 61.5799 48.8589C62.9854 45.8748 61.7166 43.9782 60.0607 43.1982C59.5895 42.9765 59.1127 42.8506 58.6437 42.8199V38.2215C59.2526 37.9162 59.8807 37.6486 60.5229 37.4221C60.9968 42.0287 64.9003 45.6339 69.6298 45.6339C74.3598 45.6339 78.2631 42.0287 78.737 37.4221C84.9847 39.6222 89.3239 45.4348 89.6287 52.0921H59.0175Z" fill="#333333"/>
<path d="M18.1054 21.9994C18.9662 21.9994 19.664 21.3016 19.664 20.4408C19.664 19.5801 18.9662 18.8823 18.1054 18.8823C17.2446 18.8823 16.5469 19.5801 16.5469 20.4408C16.5469 21.3016 17.2446 21.9994 18.1054 21.9994Z" fill="#333333"/>
<path d="M27.143 21.9994C28.0037 21.9994 28.7015 21.3016 28.7015 20.4408C28.7015 19.5801 28.0037 18.8823 27.143 18.8823C26.2822 18.8823 25.5844 19.5801 25.5844 20.4408C25.5844 21.3016 26.2822 21.9994 27.143 21.9994Z" fill="#333333"/>
<path d="M19.1964 28.2246C20.0344 29.06 21.3103 29.5391 22.697 29.5391C24.0839 29.5391 25.3599 29.06 26.1979 28.2244C26.7221 27.7016 26.7234 26.8526 26.2006 26.3284C25.6778 25.8039 24.8289 25.803 24.3047 26.3257C24.0585 26.5711 23.4898 26.8579 22.697 26.8579C21.9045 26.8579 21.3356 26.5711 21.0894 26.3257C20.5651 25.8031 19.7163 25.8042 19.1935 26.3286C18.6707 26.853 18.6722 27.7018 19.1964 28.2246Z" fill="#333333"/>
<path d="M41.5717 47.05C42.4325 47.05 43.1303 46.3522 43.1303 45.4915C43.1303 44.6307 42.4325 43.9329 41.5717 43.9329C40.711 43.9329 40.0132 44.6307 40.0132 45.4915C40.0132 46.3522 40.711 47.05 41.5717 47.05Z" fill="#333333"/>
<path d="M50.6093 47.05C51.47 47.05 52.1678 46.3522 52.1678 45.4915C52.1678 44.6307 51.47 43.9329 50.6093 43.9329C49.7485 43.9329 49.0507 44.6307 49.0507 45.4915C49.0507 46.3522 49.7485 47.05 50.6093 47.05Z" fill="#333333"/>
<path d="M47.771 51.3764C47.5246 51.6218 46.9559 51.9085 46.1633 51.9085C45.3706 51.9085 44.8019 51.622 44.5557 51.3764C44.0315 50.8538 43.1827 50.8549 42.6598 51.3792C42.137 51.9036 42.1385 52.7524 42.6627 53.2752C43.5005 54.1105 44.7766 54.5896 46.1633 54.5896C47.5501 54.5896 48.8259 54.1105 49.6638 53.2752C50.1882 52.7526 50.1897 51.9036 49.6667 51.3792C49.1441 50.8549 48.2953 50.8532 47.771 51.3764Z" fill="#333333"/>
<path d="M65.038 21.8232C65.8988 21.8232 66.5966 21.1254 66.5966 20.2646C66.5966 19.4038 65.8988 18.7061 65.038 18.7061C64.1773 18.7061 63.4795 19.4038 63.4795 20.2646C63.4795 21.1254 64.1773 21.8232 65.038 21.8232Z" fill="#333333"/>
<path d="M74.0756 21.8232C74.9364 21.8232 75.6341 21.1254 75.6341 20.2646C75.6341 19.4038 74.9364 18.7061 74.0756 18.7061C73.2148 18.7061 72.517 19.4038 72.517 20.2646C72.517 21.1254 73.2148 21.8232 74.0756 21.8232Z" fill="#333333"/>
<path d="M71.2371 26.1495C70.9909 26.395 70.4222 26.6817 69.6295 26.6817C68.8369 26.6817 68.268 26.395 68.0219 26.1494C67.4975 25.627 66.6487 25.6279 66.1259 26.1522C65.6032 26.6766 65.6046 27.5254 66.1288 28.0482C66.9668 28.8836 68.2428 29.3628 69.6295 29.3628C71.0164 29.3628 72.2923 28.8836 73.1303 28.048C73.6545 27.5252 73.6558 26.6763 73.133 26.1521C72.6103 25.6275 71.7613 25.6268 71.2371 26.1495Z" fill="#333333"/>
</svg>
