<svg width="23" height="22" viewBox="0 0 23 22" fill="none" xmlns="http://www.w3.org/2000/svg">
<path d="M2.23053 14.354L14.7944 1.78092C14.9238 1.65058 15.0992 1.57715 15.2818 1.57715H15.2827C15.4654 1.57715 15.6407 1.64966 15.7692 1.77908L20.2209 6.23078C20.3503 6.3602 20.4228 6.53552 20.4228 6.71726C20.4228 6.89991 20.3503 7.07523 20.2209 7.20465L7.646 19.7704L2.23053 14.354Z" fill="#2196F3"/>
<path d="M20.7147 5.42591L21.1672 4.9734C21.7226 4.41716 22.0291 3.68378 22.0291 2.90818C22.0291 2.11513 21.7207 1.37716 21.1691 0.835612C20.0658 -0.27869 18.1263 -0.277772 17.0258 0.833776L16.5733 1.28629L20.7147 5.42591Z" fill="#2196F3"/>
<path d="M1.85787 15.2793L0.0312981 21.106C-0.0448857 21.3501 0.0202836 21.6172 0.202023 21.7981C0.332362 21.9293 0.508594 22 0.688498 22C0.757338 22 0.826179 21.9899 0.89502 21.9688L6.72078 20.1422L1.85787 15.2793Z" fill="#2196F3"/>
<path d="M6.39768 8.03716C6.57392 8.03716 6.75015 7.97015 6.88416 7.83523L11.3285 3.39087C11.5662 3.15406 11.8838 3.06043 12.195 3.08338L13.2818 1.9957C12.3419 1.4927 11.1468 1.62579 10.3546 2.417L5.91029 6.86136C5.64135 7.1303 5.64135 7.56629 5.91029 7.83523C6.04522 7.96924 6.22053 8.03716 6.39768 8.03716Z" fill="#2196F3"/>
</svg>
