<svg width="81" height="80" viewBox="0 0 81 80" fill="none" xmlns="http://www.w3.org/2000/svg">
<path d="M77.6666 0.00218824C60.8878 0.0176622 44.4487 7.07988 32.56 19.3804L28.3326 23.6078L23.8383 19.1135L10.5715 22.8582L0 33.4295L9.25499 42.6848L9.25483 42.685L9.73343 43.1634L5.37993 52.1445L8.24949 55.0141L1.23073 62.033L4.54637 65.3487L11.5651 58.3299L14.9596 61.7246L0.0958134 76.5881L3.41146 79.9037L18.2752 65.0401L21.6696 68.4346L14.6505 75.4536L17.9662 78.7693L24.9853 71.7502L27.8548 74.6199L36.8363 70.2664L46.5699 80L57.1404 69.4299L60.8981 56.174L56.3918 51.668L60.619 47.4408C66.4817 41.7898 71.3409 34.8219 74.6713 27.289C80.9964 12.984 79.875 1.4991 80.0155 0L77.6666 0.00218824ZM13.0222 27.0386L22.4663 24.373L25.0167 26.9233L12.5705 39.3693L6.63113 33.4295L13.0222 27.0386ZM28.8116 68.9454L11.0545 51.188L13.243 46.6733L33.3267 66.7568L28.8116 68.9454ZM55.636 57.5437L52.962 66.9772L46.5699 73.369L40.6304 67.4297L53.076 54.9841L55.636 57.5437ZM57.3501 44.079L53.0763 48.3528L53.0758 48.3523L37.315 64.1133L15.8864 42.685C17.4663 41.1052 30.1237 28.448 31.6483 26.9234C32.1416 26.4301 29.9721 28.5998 35.9188 22.6525C46.3621 11.8409 60.5893 5.39462 75.2701 4.7455C74.6216 19.4368 68.1707 33.6569 57.3501 44.079Z" fill="#333333"/>
<path d="M57.4404 37.6756C61.6121 33.5039 61.6154 26.7193 57.4479 22.5518C55.4324 20.5363 52.7493 19.4262 49.8929 19.4262C43.9964 19.4262 39.2029 24.1778 39.2043 30.1103C39.2051 32.9679 40.3158 35.652 42.3319 37.6681C46.4597 41.7956 53.2504 41.8658 57.4404 37.6756ZM49.8929 24.1153C51.4969 24.1153 53.0025 24.7375 54.1323 25.8674C56.4715 28.2068 56.4681 32.0165 54.1248 34.36C53.0024 35.4822 51.5001 36.1002 49.8946 36.1002C46.5394 36.1002 43.8943 33.4101 43.8934 30.1089C43.8929 28.5052 46.6086 24.1153 49.8929 24.1153Z" fill="#333333"/>
</svg>
