<svg width="28" height="22" viewBox="0 0 28 22" fill="none" xmlns="http://www.w3.org/2000/svg">
<path d="M27.8152 2.60446C26.8075 3.04615 25.7336 3.33892 24.6141 3.48108C25.7658 2.794 26.6449 1.71431 27.0581 0.412923C25.9843 1.05262 24.7987 1.50446 23.5352 1.75662C22.5156 0.671846 21.0624 0 19.477 0C16.4012 0 13.925 2.49446 13.925 5.55246C13.925 5.99246 13.9623 6.41554 14.0537 6.81831C9.43495 6.59323 5.348 4.38138 2.60247 1.012C2.12315 1.84292 1.84199 2.794 1.84199 3.81785C1.84199 5.74031 2.83282 7.44446 4.30975 8.43108C3.41716 8.41415 2.5415 8.15523 1.79965 7.74739C1.79965 7.76431 1.79965 7.78631 1.79965 7.80831C1.79965 10.5058 3.72541 12.7465 6.25075 13.2626C5.79853 13.3862 5.30566 13.4454 4.79415 13.4454C4.43847 13.4454 4.0794 13.4251 3.74235 13.3506C4.46218 15.5489 6.50481 17.1651 8.93361 17.2175C7.04342 18.6949 4.64341 19.5851 2.04524 19.5851C1.58963 19.5851 1.15265 19.5648 0.715668 19.5089C3.17665 21.0946 6.09324 22 9.23848 22C19.4618 22 25.0511 13.5385 25.0511 6.204C25.0511 5.95862 25.0426 5.72169 25.0308 5.48646C26.1334 4.70462 27.0598 3.72815 27.8152 2.60446Z" fill="#EEEEEE"/>
</svg>
