<svg width="22" height="22" viewBox="0 0 22 22" fill="none" xmlns="http://www.w3.org/2000/svg">
<path d="M2.74999 5.49999C4.26877 5.49999 5.49999 4.26877 5.49999 2.74999C5.49999 1.23121 4.26877 0 2.74999 0C1.23121 0 0 1.23121 0 2.74999C0 4.26877 1.23121 5.49999 2.74999 5.49999Z" fill="#2196F3"/>
<path d="M0.458347 7.3335H5.04169C5.29481 7.3335 5.50003 7.53871 5.50003 7.79184V21.5418C5.50003 21.7949 5.29481 22.0002 5.04169 22.0002H0.458347C0.205218 22.0001 0 21.7949 0 21.5418V7.7918C0 7.53867 0.205218 7.3335 0.458347 7.3335Z" fill="#2196F3"/>
<path d="M18.6999 6.70279C16.6929 6.13088 14.5353 6.48881 12.8204 7.67814C12.7684 7.47481 12.5848 7.3328 12.3749 7.33349H7.7916C7.53847 7.33349 7.33325 7.53871 7.33325 7.79183V21.5418C7.33325 21.7949 7.53847 22.0002 7.7916 22.0002H12.3749C12.6281 22.0002 12.8333 21.7949 12.8333 21.5418V11.6601C13.4956 11.0361 14.4532 10.8389 15.3083 11.1505C16.1118 11.5474 16.5862 12.3998 16.4999 13.2918V21.5418C16.4999 21.7949 16.7051 22.0002 16.9583 22.0002H21.5416C21.7947 22.0002 22 21.7949 22 21.5418V12.3687C21.9477 8.60214 20.1758 7.20789 18.6999 6.70279Z" fill="#2196F3"/>
</svg>
