<svg width="188" height="41" viewBox="0 0 188 41" fill="none" xmlns="http://www.w3.org/2000/svg">
<path d="M2.83552 16.86H7.51552V33H2.83552V16.86ZM5.17552 14.61C4.31552 14.61 3.61552 14.36 3.07552 13.86C2.53552 13.36 2.26552 12.74 2.26552 12C2.26552 11.26 2.53552 10.64 3.07552 10.14C3.61552 9.64 4.31552 9.39 5.17552 9.39C6.03552 9.39 6.73552 9.63 7.27552 10.11C7.81552 10.59 8.08552 11.19 8.08552 11.91C8.08552 12.69 7.81552 13.34 7.27552 13.86C6.73552 14.36 6.03552 14.61 5.17552 14.61ZM17.289 33.24C15.949 33.24 14.639 33.08 13.359 32.76C12.079 32.42 11.059 32 10.299 31.5L11.859 28.14C12.579 28.6 13.449 28.98 14.469 29.28C15.489 29.56 16.489 29.7 17.469 29.7C19.449 29.7 20.439 29.21 20.439 28.23C20.439 27.77 20.169 27.44 19.629 27.24C19.089 27.04 18.259 26.87 17.139 26.73C15.819 26.53 14.729 26.3 13.869 26.04C13.009 25.78 12.259 25.32 11.619 24.66C10.999 24 10.689 23.06 10.689 21.84C10.689 20.82 10.979 19.92 11.559 19.14C12.159 18.34 13.019 17.72 14.139 17.28C15.279 16.84 16.619 16.62 18.159 16.62C19.299 16.62 20.429 16.75 21.549 17.01C22.689 17.25 23.629 17.59 24.369 18.03L22.809 21.36C21.389 20.56 19.839 20.16 18.159 20.16C17.159 20.16 16.409 20.3 15.909 20.58C15.409 20.86 15.159 21.22 15.159 21.66C15.159 22.16 15.429 22.51 15.969 22.71C16.509 22.91 17.369 23.1 18.549 23.28C19.869 23.5 20.949 23.74 21.789 24C22.629 24.24 23.359 24.69 23.979 25.35C24.599 26.01 24.909 26.93 24.909 28.11C24.909 29.11 24.609 30 24.009 30.78C23.409 31.56 22.529 32.17 21.369 32.61C20.229 33.03 18.869 33.24 17.289 33.24ZM35.4765 33.24C33.7765 33.24 32.2465 32.89 30.8865 32.19C29.5465 31.47 28.4965 30.48 27.7365 29.22C26.9765 27.96 26.5965 26.53 26.5965 24.93C26.5965 23.33 26.9765 21.9 27.7365 20.64C28.4965 19.38 29.5465 18.4 30.8865 17.7C32.2465 16.98 33.7765 16.62 35.4765 16.62C37.1765 16.62 38.6965 16.98 40.0365 17.7C41.3765 18.4 42.4265 19.38 43.1865 20.64C43.9465 21.9 44.3265 23.33 44.3265 24.93C44.3265 26.53 43.9465 27.96 43.1865 29.22C42.4265 30.48 41.3765 31.47 40.0365 32.19C38.6965 32.89 37.1765 33.24 35.4765 33.24ZM35.4765 29.4C36.6765 29.4 37.6565 29 38.4165 28.2C39.1965 27.38 39.5865 26.29 39.5865 24.93C39.5865 23.57 39.1965 22.49 38.4165 21.69C37.6565 20.87 36.6765 20.46 35.4765 20.46C34.2765 20.46 33.2865 20.87 32.5065 21.69C31.7265 22.49 31.3365 23.57 31.3365 24.93C31.3365 26.29 31.7265 27.38 32.5065 28.2C33.2865 29 34.2765 29.4 35.4765 29.4ZM57.2647 16.62C59.2647 16.62 60.8747 17.22 62.0947 18.42C63.3347 19.62 63.9547 21.4 63.9547 23.76V33H59.2747V24.48C59.2747 23.2 58.9947 22.25 58.4347 21.63C57.8747 20.99 57.0647 20.67 56.0047 20.67C54.8247 20.67 53.8847 21.04 53.1847 21.78C52.4847 22.5 52.1347 23.58 52.1347 25.02V33H47.4547V16.86H51.9247V18.75C52.5447 18.07 53.3147 17.55 54.2347 17.19C55.1547 16.81 56.1647 16.62 57.2647 16.62ZM85.0226 16.86V30.3C85.0226 33.26 84.2526 35.46 82.7126 36.9C81.1726 38.34 78.9226 39.06 75.9626 39.06C74.4026 39.06 72.9226 38.87 71.5226 38.49C70.1226 38.11 68.9626 37.56 68.0426 36.84L69.9026 33.48C70.5826 34.04 71.4426 34.48 72.4826 34.8C73.5226 35.14 74.5626 35.31 75.6026 35.31C77.2226 35.31 78.4126 34.94 79.1726 34.2C79.9526 33.48 80.3426 32.38 80.3426 30.9V30.21C79.1226 31.55 77.4226 32.22 75.2426 32.22C73.7626 32.22 72.4026 31.9 71.1626 31.26C69.9426 30.6 68.9726 29.68 68.2526 28.5C67.5326 27.32 67.1726 25.96 67.1726 24.42C67.1726 22.88 67.5326 21.52 68.2526 20.34C68.9726 19.16 69.9426 18.25 71.1626 17.61C72.4026 16.95 73.7626 16.62 75.2426 16.62C77.5826 16.62 79.3626 17.39 80.5826 18.93V16.86H85.0226ZM76.1726 28.38C77.4126 28.38 78.4226 28.02 79.2026 27.3C80.0026 26.56 80.4026 25.6 80.4026 24.42C80.4026 23.24 80.0026 22.29 79.2026 21.57C78.4226 20.83 77.4126 20.46 76.1726 20.46C74.9326 20.46 73.9126 20.83 73.1126 21.57C72.3126 22.29 71.9126 23.24 71.9126 24.42C71.9126 25.6 72.3126 26.56 73.1126 27.3C73.9126 28.02 74.9326 28.38 76.1726 28.38ZM93.5785 33.36C92.1585 33.36 90.8485 33.1 89.6485 32.58C88.4685 32.04 87.4985 31.28 86.7385 30.3L89.4385 27.06C90.5785 28.6 91.8785 29.37 93.3385 29.37C95.3185 29.37 96.3085 28.21 96.3085 25.89V15.9H88.9285V12H101.138V25.62C101.138 28.2 100.498 30.14 99.2185 31.44C97.9385 32.72 96.0585 33.36 93.5785 33.36ZM113.289 33.24C111.589 33.24 110.059 32.89 108.699 32.19C107.359 31.47 106.309 30.48 105.549 29.22C104.789 27.96 104.409 26.53 104.409 24.93C104.409 23.33 104.789 21.9 105.549 20.64C106.309 19.38 107.359 18.4 108.699 17.7C110.059 16.98 111.589 16.62 113.289 16.62C114.989 16.62 116.509 16.98 117.849 17.7C119.189 18.4 120.239 19.38 120.999 20.64C121.759 21.9 122.139 23.33 122.139 24.93C122.139 26.53 121.759 27.96 120.999 29.22C120.239 30.48 119.189 31.47 117.849 32.19C116.509 32.89 114.989 33.24 113.289 33.24ZM113.289 29.4C114.489 29.4 115.469 29 116.229 28.2C117.009 27.38 117.399 26.29 117.399 24.93C117.399 23.57 117.009 22.49 116.229 21.69C115.469 20.87 114.489 20.46 113.289 20.46C112.089 20.46 111.099 20.87 110.319 21.69C109.539 22.49 109.149 23.57 109.149 24.93C109.149 26.29 109.539 27.38 110.319 28.2C111.099 29 112.089 29.4 113.289 29.4ZM130.697 33.24C129.357 33.24 128.047 33.08 126.767 32.76C125.487 32.42 124.467 32 123.707 31.5L125.267 28.14C125.987 28.6 126.857 28.98 127.877 29.28C128.897 29.56 129.897 29.7 130.877 29.7C132.857 29.7 133.847 29.21 133.847 28.23C133.847 27.77 133.577 27.44 133.037 27.24C132.497 27.04 131.667 26.87 130.547 26.73C129.227 26.53 128.137 26.3 127.277 26.04C126.417 25.78 125.667 25.32 125.027 24.66C124.407 24 124.097 23.06 124.097 21.84C124.097 20.82 124.387 19.92 124.967 19.14C125.567 18.34 126.427 17.72 127.547 17.28C128.687 16.84 130.027 16.62 131.567 16.62C132.707 16.62 133.837 16.75 134.957 17.01C136.097 17.25 137.037 17.59 137.777 18.03L136.217 21.36C134.797 20.56 133.247 20.16 131.567 20.16C130.567 20.16 129.817 20.3 129.317 20.58C128.817 20.86 128.567 21.22 128.567 21.66C128.567 22.16 128.837 22.51 129.377 22.71C129.917 22.91 130.777 23.1 131.957 23.28C133.277 23.5 134.357 23.74 135.197 24C136.037 24.24 136.767 24.69 137.387 25.35C138.007 26.01 138.317 26.93 138.317 28.11C138.317 29.11 138.017 30 137.417 30.78C136.817 31.56 135.937 32.17 134.777 32.61C133.637 33.03 132.277 33.24 130.697 33.24ZM141.205 16.86H145.885V33H141.205V16.86ZM143.545 14.61C142.685 14.61 141.985 14.36 141.445 13.86C140.905 13.36 140.635 12.74 140.635 12C140.635 11.26 140.905 10.64 141.445 10.14C141.985 9.64 142.685 9.39 143.545 9.39C144.405 9.39 145.105 9.63 145.645 10.11C146.185 10.59 146.455 11.19 146.455 11.91C146.455 12.69 146.185 13.34 145.645 13.86C145.105 14.36 144.405 14.61 143.545 14.61ZM156.738 16.62C159.238 16.62 161.158 17.22 162.498 18.42C163.838 19.6 164.508 21.39 164.508 23.79V33H160.128V30.99C159.248 32.49 157.608 33.24 155.208 33.24C153.968 33.24 152.888 33.03 151.968 32.61C151.068 32.19 150.378 31.61 149.898 30.87C149.418 30.13 149.178 29.29 149.178 28.35C149.178 26.85 149.738 25.67 150.858 24.81C151.998 23.95 153.748 23.52 156.108 23.52H159.828C159.828 22.5 159.518 21.72 158.898 21.18C158.278 20.62 157.348 20.34 156.108 20.34C155.248 20.34 154.398 20.48 153.558 20.76C152.738 21.02 152.038 21.38 151.458 21.84L149.778 18.57C150.658 17.95 151.708 17.47 152.928 17.13C154.168 16.79 155.438 16.62 156.738 16.62ZM156.378 30.09C157.178 30.09 157.888 29.91 158.508 29.55C159.128 29.17 159.568 28.62 159.828 27.9V26.25H156.618C154.698 26.25 153.738 26.88 153.738 28.14C153.738 28.74 153.968 29.22 154.428 29.58C154.908 29.92 155.558 30.09 156.378 30.09ZM178.554 16.62C180.554 16.62 182.164 17.22 183.384 18.42C184.624 19.62 185.244 21.4 185.244 23.76V33H180.564V24.48C180.564 23.2 180.284 22.25 179.724 21.63C179.164 20.99 178.354 20.67 177.294 20.67C176.114 20.67 175.174 21.04 174.474 21.78C173.774 22.5 173.424 23.58 173.424 25.02V33H168.744V10.74H173.424V18.54C174.044 17.92 174.794 17.45 175.674 17.13C176.554 16.79 177.514 16.62 178.554 16.62Z" fill="#EEEEEE"/>
<path d="M144.797 0.0173068C140.663 0.296372 137.528 3.87949 137.807 8.00533C138.087 12.1315 141.677 15.2618 145.811 14.9827C149.945 14.7036 153.081 11.1194 152.801 6.99321C152.522 2.86737 148.931 -0.261759 144.797 0.0173068ZM144.871 1.11494C148.411 0.876 151.462 3.53463 151.702 7.06773C151.916 10.235 149.797 13.011 146.805 13.7235C146.818 13.6743 146.828 13.6223 146.837 13.5686C146.916 13.2967 146.964 12.8913 146.935 12.8567C146.855 12.7623 147.256 11.7755 147.447 11.5966C147.699 11.3596 147.818 10.8275 147.747 10.2555C147.694 9.83074 147.722 9.60987 147.904 8.99061C148.046 8.51114 148.19 8.16936 148.306 8.04234C148.406 7.93303 148.594 7.62917 148.723 7.36756C148.971 6.86605 149.455 6.32306 149.756 6.21011C150.058 6.09693 150.334 5.63607 150.305 5.29209C150.271 4.88677 150.156 4.71808 149.972 4.80463C149.864 4.85485 149.792 4.83599 149.69 4.73057C149.571 4.60602 149.55 4.61187 149.519 4.77891C149.499 4.88385 149.429 4.97518 149.363 4.98008C149.27 4.98699 149.276 4.91351 149.391 4.65433C149.472 4.47084 149.536 4.18281 149.534 4.01409C149.529 3.71532 149.267 3.02713 149.143 2.99064C149.109 2.98062 148.854 3.17532 148.576 3.42171C147.83 4.08512 146.657 4.9247 146.454 4.94098C146.356 4.94883 146.171 4.93365 146.043 4.90784C145.808 4.86036 145.453 5.02039 144.615 5.55097C144.252 5.7802 144.035 5.84308 143.522 5.86593C143.128 5.8835 142.764 5.96298 142.576 6.07334C142.297 6.23744 142.276 6.27096 142.329 6.47485C142.36 6.59732 142.555 6.86584 142.762 7.07152L143.139 7.44582L142.909 7.80935C142.782 8.00952 142.642 8.29271 142.598 8.43792C142.555 8.58313 142.386 8.84556 142.223 9.02151C141.907 9.36081 141.311 10.3465 141.119 10.843C141.072 10.966 140.587 11.2858 140.252 11.4471C139.487 10.4718 138.997 9.26364 138.907 7.93135C138.667 4.39844 141.331 1.35406 144.871 1.11497L144.871 1.11494Z" fill="#EBEBEB"/>
</svg>
