<svg width="86" height="80" viewBox="0 0 86 80" fill="none" xmlns="http://www.w3.org/2000/svg">
<path d="M85.3333 65V0H0V65H32.5V75H27.5V80H57.8333V75H52.8333V65H85.3333ZM5 60V53.3333H55.3333V48.3333H23.7022L37.0833 34.9522L44.5833 42.4522L65.3333 21.7022V27.8333H70.3333V12.8333H55.3333V17.8333H62.1312L44.5833 35.3812L37.0833 27.8812L16.6312 48.3333H5V5H80.3333V60C78.3362 60 7.0105 60 5 60ZM47.8333 75H37.5V65H47.8333V75Z" fill="#333333"/>
<path d="M60.3333 48.3333H65.3333V53.3333H60.3333V48.3333Z" fill="#333333"/>
<path d="M70.3333 48.3333H75.3333V53.3333H70.3333V48.3333Z" fill="#333333"/>
</svg>
