<svg width="22" height="22" viewBox="0 0 22 22" fill="none" xmlns="http://www.w3.org/2000/svg">
<g opacity="0.6">
<path opacity="0.6" d="M7.67273 17.6001H1.04095C0.469622 17.6001 0.00646973 18.0632 0.00646973 18.6346V20.9658C0.00646973 21.5371 0.469622 22.0003 1.04095 22.0003H7.67273C8.24406 22.0003 8.70721 21.5371 8.70721 20.9658V18.6346C8.70721 18.0632 8.24406 17.6001 7.67273 17.6001Z" fill="black"/>
<path opacity="0.6" d="M20.718 17.6001H14.0917C13.5204 17.6001 13.0572 18.0632 13.0572 18.6346V20.9658C13.0572 21.5371 13.5204 22.0003 14.0917 22.0003H20.718C21.2894 22.0003 21.7525 21.5371 21.7525 20.9658V18.6346C21.7525 18.0632 21.2894 17.6001 20.718 17.6001Z" fill="black"/>
<path opacity="0.6" d="M20.7209 8.7998H1.03448C0.463152 8.7998 0 9.26296 0 9.83428V12.1655C0 12.7368 0.463152 13.2 1.03448 13.2H20.7209C21.2922 13.2 21.7553 12.7368 21.7553 12.1655V9.83428C21.7553 9.26296 21.2922 8.7998 20.7209 8.7998Z" fill="black"/>
<path opacity="0.6" d="M12.0243 0H1.04095C0.469622 0 0.00646973 0.463152 0.00646973 1.03448V3.36542C0.00646973 3.93674 0.469622 4.3999 1.04095 4.3999H12.0243C12.5956 4.3999 13.0587 3.93674 13.0587 3.36542V1.03448C13.0587 0.463152 12.5956 0 12.0243 0Z" fill="black"/>
<path opacity="0.6" d="M20.7235 0H18.4422C17.8709 0 17.4077 0.463152 17.4077 1.03448V3.36542C17.4077 3.93674 17.8709 4.3999 18.4422 4.3999H20.7235C21.2948 4.3999 21.7579 3.93674 21.7579 3.36542V1.03448C21.7579 0.463152 21.2948 0 20.7235 0Z" fill="black"/>
</g>
</svg>
