<svg width="80" height="80" viewBox="0 0 80 80" fill="none" xmlns="http://www.w3.org/2000/svg">
<path d="M76 0H28C25.7908 0 24 1.79083 24 4V33.3333H6.66667C4.4575 33.3333 2.66667 35.1242 2.66667 37.3333V64H1.33333C0.597 64 0 64.597 0 65.3333C0.00433333 69.0133 2.98667 71.9957 6.66667 72H49.3333C53.0115 72.0037 55.9963 69.0248 56 65.3467C56 65.3422 56 65.3378 56 65.3333C56 64.597 55.403 64 54.6667 64H53.3333V49.3333H68C68.7363 49.3333 69.3333 48.7363 69.3333 48C69.3333 47.2637 68.7363 46.6667 68 46.6667H61.0053L59.1013 40H76C78.2092 40 80 38.2092 80 36V4C80 1.79083 78.2092 0 76 0ZM5.33333 37.3333C5.33333 36.597 5.93033 36 6.66667 36H49.3333C50.0697 36 50.6667 36.597 50.6667 37.3333V64H32C31.2637 64 30.6667 64.597 30.6667 65.3333H25.3333C25.3333 64.597 24.7363 64 24 64H5.33333V37.3333ZM52.1707 68.1573C51.4175 68.909 50.3973 69.3318 49.3333 69.3333H6.66667C4.972 69.3313 3.46183 68.2637 2.89467 66.6667H22.6667C22.6667 67.403 23.2637 68 24 68H32C32.7363 68 33.3333 67.403 33.3333 66.6667H53.1053C52.9067 67.226 52.5875 67.7348 52.1707 68.1573ZM53.3333 46.6667V40H56.328L58.232 46.6667H53.3333ZM77.3333 36C77.3333 36.7363 76.7363 37.3333 76 37.3333H53.3333C53.3333 35.1242 51.5425 33.3333 49.3333 33.3333H26.6667V4C26.6667 3.26367 27.2637 2.66667 28 2.66667H76C76.7363 2.66667 77.3333 3.26367 77.3333 4V36Z" fill="black"/>
<path d="M73.3333 50.6667H62.6667C60.4575 50.6667 58.6667 52.4575 58.6667 54.6667V76C58.6667 78.2092 60.4575 80 62.6667 80H73.3333C75.5425 80 77.3333 78.2092 77.3333 76V54.6667C77.3333 52.4575 75.5425 50.6667 73.3333 50.6667ZM74.6667 76C74.6667 76.7364 74.0697 77.3334 73.3333 77.3334H62.6667C61.9303 77.3334 61.3333 76.7364 61.3333 76V54.6667C61.3333 53.9304 61.9303 53.3334 62.6667 53.3334H73.3333C74.0697 53.3334 74.6667 53.9304 74.6667 54.6667V76Z" fill="black"/>
</svg>
