<svg width="30" height="30" viewBox="0 0 30 30" fill="none" xmlns="http://www.w3.org/2000/svg">
<path d="M13.9864 0.0346135C5.73401 0.592745 -0.523514 7.75897 0.0346172 16.0107C0.592015 24.2631 7.75824 30.5235 16.0107 29.9654C24.2631 29.4073 30.5228 22.2388 29.9647 13.9864C29.4065 5.73474 22.2388 -0.523518 13.9864 0.0346135ZM14.1349 2.22988C21.2007 1.752 27.2917 7.06927 27.7699 14.1355C28.1983 20.4701 23.967 26.022 17.9949 27.447C18.0208 27.3486 18.0411 27.2445 18.0589 27.1371C18.2168 26.5934 18.3125 25.7825 18.2544 25.7134C18.0953 25.5245 18.8955 23.5511 19.2762 23.1933C19.7805 22.7192 20.0179 21.6551 19.8758 20.5109C19.7703 19.6615 19.8252 19.2197 20.1894 17.9812C20.4714 17.0223 20.7607 16.3387 20.9915 16.0847C21.1901 15.8661 21.5656 15.2583 21.8237 14.7351C22.3185 13.7321 23.2855 12.6461 23.8862 12.4202C24.4882 12.1939 25.0387 11.2721 24.9819 10.5842C24.9148 9.77354 24.6852 9.43617 24.3164 9.60925C24.1023 9.7097 23.957 9.67197 23.755 9.46115C23.5164 9.21203 23.474 9.22373 23.4124 9.55783C23.3737 9.7677 23.234 9.95036 23.1019 9.96016C22.9154 9.97399 22.9269 9.82703 23.1566 9.30865C23.3193 8.94168 23.4472 8.36563 23.4422 8.02818C23.4332 7.43065 22.9101 6.05426 22.6628 5.98128C22.5949 5.96124 22.0846 6.35063 21.5313 6.84342C20.0415 8.17024 17.6999 9.8494 17.294 9.88197C17.0988 9.89766 16.7294 9.8673 16.474 9.81568C16.0043 9.72072 15.2965 10.0408 13.623 11.1019C12.8999 11.5604 12.4662 11.6862 11.4419 11.7319C10.6546 11.767 9.92932 11.926 9.5541 12.1467C8.99624 12.4749 8.95552 12.5419 9.05939 12.9497C9.12179 13.1946 9.51193 13.7317 9.9257 14.143L10.6769 14.8916L10.2184 15.6187C9.96543 16.019 9.685 16.5854 9.59823 16.8758C9.51147 17.1663 9.17429 17.6911 8.84787 18.043C8.21848 18.7216 7.02746 20.693 6.64549 21.686C6.55088 21.9319 5.58343 22.5716 4.91477 22.8942C3.38721 20.9435 2.40956 18.5273 2.22936 15.8627C1.75148 8.79688 7.0689 2.70812 14.1349 2.22993L14.1349 2.22988Z" fill="#EBEBEB"/>
</svg>
