<svg width="23" height="22" viewBox="0 0 23 22" fill="none" xmlns="http://www.w3.org/2000/svg">
<path d="M20.3978 8.42504C19.6727 8.42504 19.0347 8.73017 18.5651 9.20556C16.8386 7.9927 14.5104 7.21217 11.9307 7.12896L13.2707 1.00148L17.5378 1.9733C17.5378 3.03313 18.3891 3.89878 19.4336 3.89878C20.4982 3.89878 21.3543 3.01017 21.3543 1.94939C21.3543 0.888609 20.504 0 19.4346 0C18.6894 0 18.0467 0.456261 17.7262 1.07991L13.0134 0.020087C12.7762 -0.044 12.5438 0.128174 12.4807 0.369217L11.0095 7.12417C8.44988 7.23226 6.14657 8.01183 4.41431 9.22565C3.94466 8.73017 3.28179 8.42504 2.55675 8.42504C-0.132992 8.42504 -1.01395 12.0876 1.44909 13.3397C1.36205 13.727 1.32283 14.1403 1.32283 14.5525C1.32283 18.6665 5.89022 22 11.4983 22C17.1303 22 21.6977 18.6665 21.6977 14.5525C21.6977 14.1403 21.6547 13.7079 21.5485 13.3196C23.9618 12.0627 23.0732 8.42696 20.3978 8.42504ZM5.35744 13.5998C5.35744 12.5199 6.20875 11.6504 7.27814 11.6504C8.32266 11.6504 9.17492 12.5142 9.17492 13.5998C9.17492 14.6606 8.32362 15.5253 7.27814 15.5253C6.21353 15.5301 5.35744 14.6606 5.35744 13.5998ZM15.7252 18.1892C13.9642 19.976 8.99509 19.976 7.23318 18.1892C7.03901 18.017 7.03901 17.7129 7.23318 17.5168C7.40249 17.3446 7.70283 17.3446 7.87214 17.5168C9.21701 18.9162 13.6782 18.9401 15.0814 17.5168C15.2507 17.3446 15.5511 17.3446 15.7204 17.5168C15.9184 17.7138 15.9184 18.018 15.7252 18.1892ZM15.686 15.5291C14.6414 15.5291 13.7901 14.6654 13.7901 13.6056C13.7901 12.5257 14.6414 11.6562 15.686 11.6562C16.7506 11.6562 17.6067 12.5199 17.6067 13.6056C17.6019 14.6606 16.7506 15.5291 15.686 15.5291Z" fill="#FF5722"/>
</svg>
