<svg width="28" height="22" viewBox="0 0 28 22" fill="none" xmlns="http://www.w3.org/2000/svg">
<path d="M25.5721 2.58558L27.7895 0.464316V0H20.108L14.6335 13.6261L8.40516 0H0.350842V0.464316L2.94105 3.58253C3.19347 3.81295 3.32547 4.14989 3.29189 4.48916V16.7432C3.37179 17.1843 3.22821 17.6382 2.91789 17.9589L0 21.4952V21.9537H8.27316V21.4894L5.35526 17.9589C5.03916 17.6371 4.88979 17.1913 4.95347 16.7432V6.14379L12.2158 21.9595H13.0599L19.3044 6.14379V18.7428C19.3044 19.0752 19.3044 19.1435 19.0867 19.3612L16.8404 21.5345V22H27.7385V21.5357L25.5733 19.4156C25.3834 19.272 25.2849 19.0312 25.3255 18.7973V3.20389C25.2849 2.96884 25.3822 2.728 25.5721 2.58558Z" fill="#333333"/>
</svg>
