<svg width="20" height="22" viewBox="0 0 20 22" fill="none" xmlns="http://www.w3.org/2000/svg">
<path d="M14.6813 18.3424C17.4239 16.598 19.2499 13.4722 19.2499 9.91005C19.2499 4.43848 14.9398 0 9.62497 0C4.30832 0 0 4.43849 0 9.91097C0 16.3377 5.84006 21.0503 11.8937 19.5433C12.8058 21.2308 14.2 22.4262 17.1535 21.856V20.1739C17.1535 20.1739 15.2597 19.6899 14.6813 18.3424ZM13.2522 15.4879C12.1953 14.343 10.537 13.4035 8.4333 13.5226V15.4705C8.4333 15.4705 9.86146 15.5283 10.8368 17.2333C7.61197 18.1994 4.78223 15.0415 4.78223 11.22V8.6698C4.78223 5.25431 6.98223 2.48691 9.69647 2.48691C12.4116 2.48691 14.6134 5.25523 14.6134 8.6698C14.4769 10.1823 15.1424 13.0001 13.2522 15.4879Z" fill="#F44336"/>
</svg>
